<svg xmlns="http://www.w3.org/2000/svg" viewBox="0 0 64 64" width="64" height="64">
  <defs>
    <linearGradient id="g" x1="0" y1="0" x2="1" y2="1">
      <stop offset="0%" stop-color="#8b5cf6"/>
      <stop offset="50%" stop-color="#d946ef"/>
      <stop offset="100%" stop-color="#3b82f6"/>
    </linearGradient>
  </defs>
  <rect width="64" height="64" rx="16" fill="url(#g)"/>
  <path d="M32 14c1.6 4.4 4.6 7.4 9 9-4.4 1.6-7.4 4.6-9 9-1.6-4.4-4.6-7.4-9-9 4.4-1.6 7.4-4.6 9-9z" fill="#fff"/>
  <path d="M44 34c.9 2.4 2.6 4.1 5 5-2.4.9-4.1 2.6-5 5-.9-2.4-2.6-4.1-5-5 2.4-.9 4.1-2.6 5-5z" fill="#fff" opacity="0.85"/>
  <path d="M20 38c.7 1.8 1.9 3 3.8 3.7-1.9.7-3.1 1.9-3.8 3.7-.7-1.8-1.9-3-3.7-3.7 1.8-.7 3-1.9 3.7-3.7z" fill="#fff" opacity="0.7"/>
</svg>
